<svg width="580" height="580" xmlns="http://www.w3.org/2000/svg">
 <!-- Created with Method Draw - http://github.com/duopixel/Method-Draw/ -->

 <g>
  <title>background</title>
  <rect fill="#fff" id="canvas_background" height="582" width="582" y="-1" x="-1"/>
  <g display="none" overflow="visible" y="0" x="0" height="100%" width="100%" id="canvasGrid">
   <rect fill="url(#gridpattern)" stroke-width="0" y="0" x="0" height="100%" width="100%"/>
  </g>
 </g>
 <g>
  <title>Layer 1</title>
  <g stroke="null" id="svg_5">
   <path fill="#733dbf" stroke="null" id="svg_4" d="m513.541502,72.498716l-447.08301,0c-36.661744,0 -66.460201,29.798457 -66.460201,66.460201l0,302.082157c0,36.661744 29.798457,66.460201 66.460201,66.460201l447.08301,0c36.661744,0 66.460201,-29.798457 66.460201,-66.460201l0,-302.082157c0,-36.661744 -29.798457,-66.460201 -66.460201,-66.460201zm-332.292145,96.665759c33.303116,0 60.415546,27.116859 60.415546,60.419975c0,33.298687 -27.112429,60.415546 -60.415546,60.415546s-60.415546,-27.116859 -60.415546,-60.415546c0,-33.303116 27.112429,-60.419975 60.415546,-60.419975zm108.75064,223.545934c0,10.005093 -8.120014,18.125107 -18.125107,18.125107l-181.251066,0c-10.005093,0 -18.125107,-8.120014 -18.125107,-18.125107l0,-12.084881c0,-36.661744 29.798457,-66.460201 66.460201,-66.460201l84.580878,0c36.661744,0 66.460201,29.798457 66.460201,66.460201l0,12.084881zm199.376173,18.125107l-132.915972,0c-10.005093,0 -18.125107,-8.120014 -18.125107,-18.125107s8.120014,-18.125107 18.125107,-18.125107l132.915972,0c10.005093,0 18.125107,8.120014 18.125107,18.125107s-8.120014,18.125107 -18.125107,18.125107zm0,-96.670188l-132.915972,0c-10.005093,0 -18.125107,-8.120014 -18.125107,-18.125107s8.120014,-18.125107 18.125107,-18.125107l132.915972,0c10.005093,0 18.125107,8.120014 18.125107,18.125107s-8.120014,18.125107 -18.125107,18.125107zm0,-96.665759l-132.915972,0c-10.005093,0 -18.125107,-8.120014 -18.125107,-18.125107s8.120014,-18.125107 18.125107,-18.125107l132.915972,0c10.005093,0 18.125107,8.120014 18.125107,18.125107s-8.120014,18.125107 -18.125107,18.125107zm0,0"/>
  </g>
 </g>
</svg>