<svg width="580" height="580" xmlns="http://www.w3.org/2000/svg">
 <!-- Created with Method Draw - http://github.com/duopixel/Method-Draw/ -->

 <g>
  <title>background</title>
  <rect fill="#fff" id="canvas_background" height="582" width="582" y="-1" x="-1"/>
  <g display="none" overflow="visible" y="0" x="0" height="100%" width="100%" id="canvasGrid">
   <rect fill="url(#gridpattern)" stroke-width="0" y="0" x="0" height="100%" width="100%"/>
  </g>
 </g>
 <g>
  <title>Layer 1</title>
  <g stroke="null" id="svg_8">
   <path fill="#733dbf" stroke="null" id="svg_4" d="m24.304425,164.2517l30.642236,18.023092c7.426776,-6.299719 16.536762,-10.296097 26.202887,-11.501901l216.582369,-26.606472c5.527021,-0.679185 10.556955,3.248286 11.236141,8.775307c0.679185,5.531947 -3.248299,10.561882 -8.780233,11.241067l-216.577443,26.611386c-3.258139,0.423266 -6.427691,1.378064 -9.375758,2.82996l224.634191,132.397449l274.569316,-161.769889l-274.569316,-161.764975l-274.564389,161.764975zm0,0"/>
   <path fill="#733dbf" stroke="null" id="svg_5" d="m293.750293,346.412002l-196.472482,-115.742568l0,104.934619c0,27.748283 23.988158,54.723881 65.812382,74.00693c42.867621,18.382378 89.136096,27.512044 135.778622,26.788572c46.637613,0.728399 92.906087,-8.401267 135.773708,-26.788572c41.829151,-19.283049 65.817296,-46.258647 65.817296,-74.00693l0,-104.934619l-196.467556,115.742568c-3.1597,1.860383 -7.082257,1.860383 -10.24197,0zm0,0"/>
   <path fill="#733dbf" stroke="null" id="svg_6" d="m67.03916,557.354157l-20.1591,-110.875052l-40.318201,131.034152l60.477301,-20.1591zm0,0"/>
   <path fill="#733dbf" stroke="null" id="svg_7" d="m77.11871,416.240454c-0.01968,-12.776624 -8.101035,-24.150564 -20.1591,-28.383194l0,-167.055743c0.029533,-4.24247 0.954811,-8.4308 2.72168,-12.289378c2.90378,-6.501499 8.007535,-11.767673 14.415533,-14.878159l-19.214143,-11.349334c-5.221887,4.429484 -9.493878,9.877758 -12.545311,16.005217c-3.587879,6.964138 -5.482721,14.676379 -5.536861,22.511655l0,167.055743c-14.45982,5.152981 -22.752808,20.33136 -19.273196,35.283352c3.484526,14.951992 17.629373,24.908496 32.876658,23.141627c15.247285,-1.761956 26.744272,-14.691146 26.714739,-30.041784zm0,0"/>
  </g>
 </g>
</svg>