<svg width="400.00000000000006" height="400.00000000000006" xmlns="http://www.w3.org/2000/svg" style="vector-effect: non-scaling-stroke;" stroke="null">
 <!-- Created with Method Draw - http://github.com/duopixel/Method-Draw/ -->

 <g stroke="null">
  <title stroke="null">background</title>
  <rect stroke="null" fill="none" id="canvas_background" height="402" width="402" y="-1" x="-1"/>
  <g style="vector-effect: non-scaling-stroke;" stroke="null" display="none" overflow="visible" y="0" x="0" height="100%" width="100%" id="canvasGrid">
   <rect stroke="null" fill="url(#gridpattern)" stroke-width="0" y="0" x="0" height="100%" width="100%"/>
  </g>
 </g>
 <g stroke="null">
  <title stroke="null">Layer 1</title>
  <!-- Created with Method Draw - http://github.com/duopixel/Method-Draw/ -->
  <!-- Created with Method Draw - http://github.com/duopixel/Method-Draw/ -->
  <!-- Created with Method Draw - http://github.com/duopixel/Method-Draw/ -->
  <!-- Created with Method Draw - http://github.com/duopixel/Method-Draw/ -->
  <!-- Created with Method Draw - http://github.com/duopixel/Method-Draw/ -->
  <g stroke="null" id="svg_269">
   <g stroke="null" transform="matrix(0.9939071804336042,0,0,0.9939071804336042,-139.63189989960776,-139.72078213661874) " id="svg_266">
    <title stroke="null" transform="translate(0.25931045413017273,0) translate(2.842170943040401e-14,-0.259294331073761) translate(-136.81170654296875,-136.2036590576172) translate(278.26629638671875,0) translate(0,278.26629638671875) ">background</title>
    <rect stroke="null" x="140.7139" y="140.803343" width="402" height="402" id="svg_264" fill="none"/>
    <g stroke="null" id="svg_263" display="none">
     <rect stroke="null" id="svg_267" width="400" height="400" x="141.7139" y="141.803343" stroke-width="0" fill="url(#gridpattern)"/>
    </g>
   </g>
   <g stroke="null" transform="matrix(0.9939071804336042,0,0,0.9939071804336042,-139.63189989960776,-139.72078213661874) " id="svg_268">
    <title fill="#733dbf" stroke="null" transform="translate(0.25931045413017273,0) translate(2.842170943040401e-14,-0.259294331073761) translate(-136.81170654296875,-136.2036590576172) translate(278.26629638671875,0) translate(0,278.26629638671875) ">Layer 1</title>
    <g stroke="null" id="svg_244">
     <g stroke="null" id="svg_260" transform="matrix(0.779798556410029,0,0,0.779798556410029,-386.5764354312423,-386.35072955891053) ">
      <g stroke="null" id="svg_261">
       <path stroke="null" d="m1141.728713,726.347166c-64.336,-64.336 -169.013,-64.335 -233.349,0.001c-43.945,43.945 -59.209,108.706 -40.181,167.461l-185.822,185.823c-2.813,2.813 -4.395,6.621 -4.395,10.606l0,84.858c0,8.291 6.709,15 15,15l84.858,0c3.984,0 7.793,-1.582 10.605,-4.395l21.211,-21.226c3.237,-3.237 4.819,-7.778 4.292,-12.334l-2.637,-22.793l31.582,-2.974c7.178,-0.674 12.847,-6.343 13.521,-13.521l2.974,-31.582l22.793,2.651c4.233,0.571 8.496,-0.85 11.704,-3.691c3.193,-2.856 5.024,-6.929 5.024,-11.206l0,-27.929l27.422,0c3.984,0 7.793,-1.582 10.605,-4.395l38.467,-37.958c58.74,19.043 122.381,4.929 166.326,-39.046c64.336,-64.335 64.336,-169.014 0,-233.35zm-42.435,106.07c-17.549,17.549 -46.084,17.549 -63.633,0s-17.549,-46.084 0,-63.633s46.084,-17.549 63.633,0s17.548,46.084 0,63.633z" id="svg_262" fill="#733dbf"/>
      </g>
     </g>
     <g stroke="null" id="svg_259" transform="matrix(0.779798556410029,0,0,0.779798556410029,-386.5764354312423,-386.35072955891053) "/>
     <g stroke="null" id="svg_258" transform="matrix(0.779798556410029,0,0,0.779798556410029,-386.5764354312423,-386.35072955891053) "/>
     <g stroke="null" id="svg_257" transform="matrix(0.779798556410029,0,0,0.779798556410029,-386.5764354312423,-386.35072955891053) "/>
     <g stroke="null" id="svg_256" transform="matrix(0.779798556410029,0,0,0.779798556410029,-386.5764354312423,-386.35072955891053) "/>
     <g stroke="null" id="svg_255" transform="matrix(0.779798556410029,0,0,0.779798556410029,-386.5764354312423,-386.35072955891053) "/>
     <g stroke="null" id="svg_254" transform="matrix(0.779798556410029,0,0,0.779798556410029,-386.5764354312423,-386.35072955891053) "/>
     <g stroke="null" id="svg_253" transform="matrix(0.779798556410029,0,0,0.779798556410029,-386.5764354312423,-386.35072955891053) "/>
     <g stroke="null" id="svg_252" transform="matrix(0.779798556410029,0,0,0.779798556410029,-386.5764354312423,-386.35072955891053) "/>
     <g stroke="null" id="svg_251" transform="matrix(0.779798556410029,0,0,0.779798556410029,-386.5764354312423,-386.35072955891053) "/>
     <g stroke="null" id="svg_250" transform="matrix(0.779798556410029,0,0,0.779798556410029,-386.5764354312423,-386.35072955891053) "/>
     <g stroke="null" id="svg_249" transform="matrix(0.779798556410029,0,0,0.779798556410029,-386.5764354312423,-386.35072955891053) "/>
     <g stroke="null" id="svg_248" transform="matrix(0.779798556410029,0,0,0.779798556410029,-386.5764354312423,-386.35072955891053) "/>
     <g stroke="null" id="svg_247" transform="matrix(0.779798556410029,0,0,0.779798556410029,-386.5764354312423,-386.35072955891053) "/>
     <g stroke="null" id="svg_246" transform="matrix(0.779798556410029,0,0,0.779798556410029,-386.5764354312423,-386.35072955891053) "/>
     <g stroke="null" id="svg_245" transform="matrix(0.779798556410029,0,0,0.779798556410029,-386.5764354312423,-386.35072955891053) "/>
    </g>
   </g>
  </g>
 </g>
</svg>