<svg width="400.00000000000006" height="400.00000000000006" xmlns="http://www.w3.org/2000/svg">
 <!-- Created with Method Draw - http://github.com/duopixel/Method-Draw/ -->

 <g>
  <title>background</title>
  <rect fill="none" id="canvas_background" height="402" width="402" y="-1" x="-1"/>
  <g display="none" overflow="visible" y="0" x="0" height="100%" width="100%" id="canvasGrid">
   <rect fill="url(#gridpattern)" stroke-width="0" y="0" x="0" height="100%" width="100%"/>
  </g>
 </g>
 <g>
  <title>Layer 1</title>
  <!-- Created with Method Draw - http://github.com/duopixel/Method-Draw/ -->
  <!-- Created with Method Draw - http://github.com/duopixel/Method-Draw/ -->
  <g stroke="null" id="svg_176">
   <g stroke="null" transform="matrix(0.8228724995437763,0,0,0.8228724995437763,-300.1782094397852,-343.3516946211578) " id="svg_159">
    <path fill="#733dbf" stroke="null" id="svg_160" d="m850.449625,781.611873c0,10.637 -2.992,20.498 -7.785,29.174l-153.201,-171.41l151.54,-132.584c5.895,9.355 9.446,20.344 9.446,32.219l0,242.601zm-242.605,-111.113l210.863,-184.5c-8.653,-4.737 -18.397,-7.642 -28.908,-7.642l-363.91,0c-10.524,0 -20.271,2.905 -28.889,7.642l210.844,184.5zm58.787,-11.162l-48.809,42.734c-2.855,2.487 -6.41,3.729 -9.978,3.729c-3.57,0 -7.125,-1.242 -9.98,-3.729l-48.82,-42.736l-155.139,173.601c9.299,5.834 20.197,9.329 31.983,9.329l363.911,0c11.784,0 22.687,-3.495 31.983,-9.329l-155.151,-173.599zm-291.945,-152.546c-5.894,9.355 -9.448,20.344 -9.448,32.22l0,242.602c0,10.637 2.978,20.498 7.789,29.174l153.183,-171.44l-151.524,-132.556z"/>
   </g>
   <g stroke="null" transform="matrix(0.8228724995437763,0,0,0.8228724995437763,-300.1782094397852,-343.3516946211578) " id="svg_161"/>
   <g stroke="null" transform="matrix(0.8228724995437763,0,0,0.8228724995437763,-300.1782094397852,-343.3516946211578) " id="svg_162"/>
   <g stroke="null" transform="matrix(0.8228724995437763,0,0,0.8228724995437763,-300.1782094397852,-343.3516946211578) " id="svg_163"/>
   <g stroke="null" transform="matrix(0.8228724995437763,0,0,0.8228724995437763,-300.1782094397852,-343.3516946211578) " id="svg_164"/>
   <g stroke="null" transform="matrix(0.8228724995437763,0,0,0.8228724995437763,-300.1782094397852,-343.3516946211578) " id="svg_165"/>
   <g stroke="null" transform="matrix(0.8228724995437763,0,0,0.8228724995437763,-300.1782094397852,-343.3516946211578) " id="svg_166"/>
   <g stroke="null" transform="matrix(0.8228724995437763,0,0,0.8228724995437763,-300.1782094397852,-343.3516946211578) " id="svg_167"/>
   <g stroke="null" transform="matrix(0.8228724995437763,0,0,0.8228724995437763,-300.1782094397852,-343.3516946211578) " id="svg_168"/>
   <g stroke="null" transform="matrix(0.8228724995437763,0,0,0.8228724995437763,-300.1782094397852,-343.3516946211578) " id="svg_169"/>
   <g stroke="null" transform="matrix(0.8228724995437763,0,0,0.8228724995437763,-300.1782094397852,-343.3516946211578) " id="svg_170"/>
   <g stroke="null" transform="matrix(0.8228724995437763,0,0,0.8228724995437763,-300.1782094397852,-343.3516946211578) " id="svg_171"/>
   <g stroke="null" transform="matrix(0.8228724995437763,0,0,0.8228724995437763,-300.1782094397852,-343.3516946211578) " id="svg_172"/>
   <g stroke="null" transform="matrix(0.8228724995437763,0,0,0.8228724995437763,-300.1782094397852,-343.3516946211578) " id="svg_173"/>
   <g stroke="null" transform="matrix(0.8228724995437763,0,0,0.8228724995437763,-300.1782094397852,-343.3516946211578) " id="svg_174"/>
   <g stroke="null" transform="matrix(0.8228724995437763,0,0,0.8228724995437763,-300.1782094397852,-343.3516946211578) " id="svg_175"/>
  </g>
 </g>
</svg>