<svg width="400" height="400" xmlns="http://www.w3.org/2000/svg">
 <!-- Created with Method Draw - http://github.com/duopixel/Method-Draw/ -->

 <g>
  <title>background</title>
  <rect fill="none" id="canvas_background" height="402" width="402" y="-1" x="-1"/>
  <g display="none" overflow="visible" y="0" x="0" height="100%" width="100%" id="canvasGrid">
   <rect fill="url(#gridpattern)" stroke-width="0" y="0" x="0" height="100%" width="100%"/>
  </g>
 </g>
 <g>
  <title>Layer 1</title>
  <g stroke="null" id="svg_58">
   <g stroke="null" transform="matrix(1.658921595799866,0,0,1.658921595799866,-1169.4074357882787,-1082.1929787372035) " id="svg_36">
    <path fill="#9762e2" stroke="null" d="m762.702314,781.50249l108.297,108.261c4.752,4.74 12.451,4.74 17.215,0c4.752,-4.74 4.752,-12.439 0,-17.179l-99.707,-99.671l99.695,-99.671c4.752,-4.74 4.752,-12.439 0,-17.191c-4.752,-4.74 -12.463,-4.74 -17.215,0l-108.297,108.26c-4.679,4.691 -4.679,12.511 0.012,17.191z" id="svg_34"/>
    <g stroke="null" id="svg_37"/>
    <g stroke="null" id="svg_38"/>
    <g stroke="null" id="svg_39"/>
    <g stroke="null" id="svg_40"/>
    <g stroke="null" id="svg_41"/>
    <g stroke="null" id="svg_42"/>
   </g>
   <g stroke="null" transform="matrix(1.658921595799866,0,0,1.658921595799866,-1169.4074357882787,-1082.1929787372035) " id="svg_43"/>
   <g stroke="null" transform="matrix(1.658921595799866,0,0,1.658921595799866,-1169.4074357882787,-1082.1929787372035) " id="svg_44"/>
   <g stroke="null" transform="matrix(1.658921595799866,0,0,1.658921595799866,-1169.4074357882787,-1082.1929787372035) " id="svg_45"/>
   <g stroke="null" transform="matrix(1.658921595799866,0,0,1.658921595799866,-1169.4074357882787,-1082.1929787372035) " id="svg_46"/>
   <g stroke="null" transform="matrix(1.658921595799866,0,0,1.658921595799866,-1169.4074357882787,-1082.1929787372035) " id="svg_47"/>
   <g stroke="null" transform="matrix(1.658921595799866,0,0,1.658921595799866,-1169.4074357882787,-1082.1929787372035) " id="svg_48"/>
   <g stroke="null" transform="matrix(1.658921595799866,0,0,1.658921595799866,-1169.4074357882787,-1082.1929787372035) " id="svg_49"/>
   <g stroke="null" transform="matrix(1.658921595799866,0,0,1.658921595799866,-1169.4074357882787,-1082.1929787372035) " id="svg_50"/>
   <g stroke="null" transform="matrix(1.658921595799866,0,0,1.658921595799866,-1169.4074357882787,-1082.1929787372035) " id="svg_51"/>
   <g stroke="null" transform="matrix(1.658921595799866,0,0,1.658921595799866,-1169.4074357882787,-1082.1929787372035) " id="svg_52"/>
   <g stroke="null" transform="matrix(1.658921595799866,0,0,1.658921595799866,-1169.4074357882787,-1082.1929787372035) " id="svg_53"/>
   <g stroke="null" transform="matrix(1.658921595799866,0,0,1.658921595799866,-1169.4074357882787,-1082.1929787372035) " id="svg_54"/>
   <g stroke="null" transform="matrix(1.658921595799866,0,0,1.658921595799866,-1169.4074357882787,-1082.1929787372035) " id="svg_55"/>
   <g stroke="null" transform="matrix(1.658921595799866,0,0,1.658921595799866,-1169.4074357882787,-1082.1929787372035) " id="svg_56"/>
   <g stroke="null" transform="matrix(1.658921595799866,0,0,1.658921595799866,-1169.4074357882787,-1082.1929787372035) " id="svg_57"/>
  </g>
 </g>
</svg>