<svg width="400.00000000000006" height="400.00000000000006" xmlns="http://www.w3.org/2000/svg">
 <!-- Created with Method Draw - http://github.com/duopixel/Method-Draw/ -->

 <g>
  <title>background</title>
  <rect fill="none" id="canvas_background" height="402" width="402" y="-1" x="-1"/>
  <g display="none" overflow="visible" y="0" x="0" height="100%" width="100%" id="canvasGrid">
   <rect fill="url(#gridpattern)" stroke-width="0" y="0" x="0" height="100%" width="100%"/>
  </g>
 </g>
 <g>
  <title>Layer 1</title>
  <!-- Created with Method Draw - http://github.com/duopixel/Method-Draw/ -->
  <g stroke="null" id="svg_87">
   <g stroke="null" transform="matrix(1.6049913532991205,0,0,1.6049913532991205,-223.49863490693704,-64.09975148992916) " id="svg_68">
    <g stroke="null" id="svg_69">
     <path stroke="null" id="svg_70" fill="#733dbf" d="m149.642846,281.679005l228.441,0c3.051,0 5.896,-1.246 7.805,-3.416c1.659,-1.882 2.393,-4.27 2.078,-6.723c-5.357,-41.734 -31.019,-76.511 -66.15,-95.053c-14.849,14.849 -35.348,24.046 -57.953,24.046s-43.105,-9.197 -57.953,-24.046c-35.132,18.537 -60.799,53.319 -66.151,95.053c-0.315,2.453 0.424,4.846 2.078,6.723c1.909,2.17 4.754,3.416 7.805,3.416z"/>
     <path stroke="null" id="svg_71" fill="#733dbf" d="m212.387846,167.464005c1.333,1.398 2.725,2.73 4.166,4.019c12.586,11.259 29.137,18.166 47.309,18.166s34.723,-6.913 47.309,-18.166c1.441,-1.289 2.834,-2.622 4.166,-4.019c1.327,-1.398 2.622,-2.828 3.84,-4.329c9.861,-12.211 15.8,-27.717 15.8,-44.6c0,-39.216 -31.906,-71.116 -71.116,-71.116s-71.114,31.905 -71.114,71.115c0,16.883 5.939,32.39 15.8,44.6c1.213,1.502 2.507,2.927 3.84,4.33z"/>
    </g>
   </g>
   <g stroke="null" transform="matrix(1.6049913532991205,0,0,1.6049913532991205,-223.49863490693704,-64.09975148992916) " id="svg_72"/>
   <g stroke="null" transform="matrix(1.6049913532991205,0,0,1.6049913532991205,-223.49863490693704,-64.09975148992916) " id="svg_73"/>
   <g stroke="null" transform="matrix(1.6049913532991205,0,0,1.6049913532991205,-223.49863490693704,-64.09975148992916) " id="svg_74"/>
   <g stroke="null" transform="matrix(1.6049913532991205,0,0,1.6049913532991205,-223.49863490693704,-64.09975148992916) " id="svg_75"/>
   <g stroke="null" transform="matrix(1.6049913532991205,0,0,1.6049913532991205,-223.49863490693704,-64.09975148992916) " id="svg_76"/>
   <g stroke="null" transform="matrix(1.6049913532991205,0,0,1.6049913532991205,-223.49863490693704,-64.09975148992916) " id="svg_77"/>
   <g stroke="null" transform="matrix(1.6049913532991205,0,0,1.6049913532991205,-223.49863490693704,-64.09975148992916) " id="svg_78"/>
   <g stroke="null" transform="matrix(1.6049913532991205,0,0,1.6049913532991205,-223.49863490693704,-64.09975148992916) " id="svg_79"/>
   <g stroke="null" transform="matrix(1.6049913532991205,0,0,1.6049913532991205,-223.49863490693704,-64.09975148992916) " id="svg_80"/>
   <g stroke="null" transform="matrix(1.6049913532991205,0,0,1.6049913532991205,-223.49863490693704,-64.09975148992916) " id="svg_81"/>
   <g stroke="null" transform="matrix(1.6049913532991205,0,0,1.6049913532991205,-223.49863490693704,-64.09975148992916) " id="svg_82"/>
   <g stroke="null" transform="matrix(1.6049913532991205,0,0,1.6049913532991205,-223.49863490693704,-64.09975148992916) " id="svg_83"/>
   <g stroke="null" transform="matrix(1.6049913532991205,0,0,1.6049913532991205,-223.49863490693704,-64.09975148992916) " id="svg_84"/>
   <g stroke="null" transform="matrix(1.6049913532991205,0,0,1.6049913532991205,-223.49863490693704,-64.09975148992916) " id="svg_85"/>
   <g stroke="null" transform="matrix(1.6049913532991205,0,0,1.6049913532991205,-223.49863490693704,-64.09975148992916) " id="svg_86"/>
  </g>
 </g>
</svg>